<svg width="130" height="40" viewBox="0 0 130 40" fill="none" xmlns="http://www.w3.org/2000/svg">
	<path d="M49.3016 7.96162H51.469C52.5346 7.96162 53.2811 7.78219 53.7136 7.41662C54.1438 7.05297 54.3604 6.58469 54.3615 6.01928C54.3623 5.46614 54.1739 4.99659 53.8023 4.61364C53.4306 4.23053 52.7293 4.03578 51.6972 4.03578H49.3016V7.96162ZM31.1707 0.458282H34.8381C36.836 0.458282 38.3335 0.925447 39.3264 1.86392C40.3195 2.79825 40.8165 4.13419 40.8131 5.85946C40.8097 7.63801 40.2659 9.02722 39.1777 10.0271C38.0894 11.027 36.4318 11.5268 34.205 11.5268H31.1832L31.1707 18.059H25.6561V0.458282H31.1707ZM31.1707 7.96162H32.5427C33.6083 7.96162 34.3537 7.78139 34.7874 7.41662C35.2167 7.05186 35.4341 6.58485 35.4352 6.01928C35.4362 5.46614 35.2499 4.99483 34.876 4.61364C34.5063 4.22845 33.803 4.03578 32.7709 4.03578H31.1707V7.96162ZM49.3016 0.458282H52.994C54.7006 0.458282 56.0071 0.601669 56.9057 0.89275C57.8082 1.17952 58.5357 1.71224 59.0877 2.49505C59.6399 3.27371 59.9127 4.22447 59.9106 5.34317C59.9087 6.32248 59.695 7.16255 59.2732 7.87151C58.8473 8.58047 58.2634 9.15418 57.5258 9.59678C57.0509 9.87542 56.4053 10.1091 55.5849 10.2893C56.9818 10.7509 58.0165 11.6315 58.6765 12.9572L61.3388 18.059H55.0955L52.4881 13.289C52.111 12.5987 51.7846 12.1388 51.4876 11.9326C51.0948 11.6594 50.6389 11.5268 50.1356 11.5268H49.3016V18.059H43.7871V0.458282H49.3016ZM63.358 0.458282H68.8602V18.059H63.358V0.458282ZM72.894 0.458282H78.0546L84.7854 10.195V0.458282H89.9461V18.059H84.7854L78.0546 8.38716V18.059H72.894V0.458282ZM98.0297 0.458282H103.528H109.189V4.80631H103.528V18.059H98.0297V4.80631H92.4065V0.458282H98.0297Z" fill="#D83135"/>
	<path d="M98.4298 30.2257C98.4267 32.004 98.7561 33.2795 99.4256 34.0572C100.093 34.8324 101.009 35.2211 102.162 35.2211C103.348 35.2211 104.27 34.8407 104.92 34.0818C105.571 33.3207 105.902 31.9548 105.906 29.9879C105.909 28.3283 105.571 27.1184 104.893 26.3531C104.217 25.5901 103.297 25.2098 102.131 25.2098C101.02 25.2098 100.125 25.596 99.4486 26.3735C98.7739 27.1488 98.4332 28.435 98.4298 30.2257ZM92.9024 30.2011C92.9076 27.3286 93.7281 25.0908 95.3542 23.4927C96.9848 21.8905 99.2505 21.0913 102.152 21.0913C105.128 21.0913 107.42 21.8783 109.027 23.4517C110.631 25.0211 111.434 27.226 111.429 30.0575C111.425 32.1146 111.068 33.8033 110.362 35.1185C109.656 36.4339 108.639 37.4595 107.309 38.192C105.977 38.9262 104.323 39.2903 102.337 39.2903C100.323 39.2903 98.6532 38.9771 97.3323 38.3437C96.0128 37.7111 94.9444 36.7093 94.1245 35.3399C93.3058 33.9721 92.8985 32.258 92.9024 30.2011ZM53.8073 33.1679L59.0648 32.8443C59.1756 33.6842 59.4074 34.3236 59.7562 34.7662C60.3209 35.4791 61.1361 35.8316 62.1933 35.8316C62.9798 35.8316 63.588 35.6512 64.0173 35.2866C64.4427 34.9219 64.6557 34.4998 64.6566 34.0204C64.6575 33.5655 64.4584 33.1558 64.0513 32.795C63.6442 32.4344 62.7041 32.0942 61.223 31.7747C58.8015 31.2378 57.0756 30.5289 56.045 29.6397C55.006 28.7503 54.488 27.6193 54.4906 26.2424C54.4923 25.3368 54.7603 24.4803 55.2947 23.6771C55.829 22.8738 56.6293 22.2427 57.6999 21.7797C58.7704 21.3208 60.2361 21.0913 62.0965 21.0913C64.3816 21.0913 66.1249 21.5092 67.3219 22.3453C68.5193 23.1813 69.2284 24.513 69.4537 26.3367L64.2462 26.6359C64.1104 25.8449 63.8201 25.2671 63.3755 24.9065C62.935 24.5498 62.3234 24.3696 61.5452 24.3696C60.8999 24.3696 60.4168 24.5009 60.0917 24.7712C59.7664 25.0376 59.6034 25.3655 59.6028 25.7507C59.6022 26.0293 59.735 26.2792 60.001 26.5046C60.2628 26.7383 60.8782 26.9514 61.8561 27.1522C64.2692 27.6645 65.9955 28.1847 67.0392 28.7093C68.083 29.2339 68.8436 29.8813 69.3165 30.66C69.7895 31.4345 70.0293 32.3033 70.0273 33.2663C70.0254 34.3931 69.7028 35.434 69.0685 36.3848C68.4337 37.3397 67.546 38.0609 66.4045 38.5526C65.2673 39.0444 63.8308 39.2903 62.0992 39.2903C59.0607 39.2903 56.9559 38.7166 55.7883 37.561C54.6168 36.4095 53.9577 34.9464 53.8073 33.1679ZM119.911 21.3904H123.579C125.576 21.3904 127.074 21.8575 128.067 22.796C129.06 23.7303 129.557 25.0663 129.554 26.7915C129.55 28.5701 129.006 29.9593 127.918 30.9592C126.83 31.9591 125.172 32.4589 122.945 32.4589H119.924L119.911 38.9911H114.397V21.3904H119.911ZM119.911 28.8937H121.283C122.349 28.8937 123.094 28.7135 123.528 28.3487C123.957 27.9839 124.175 27.5169 124.176 26.9514C124.177 26.3982 123.99 25.9269 123.616 25.5457C123.247 25.1605 122.544 24.9679 121.511 24.9679H119.911V28.8937ZM72.8938 21.3904H78.0544V27.5496H84.7854V21.3904H89.946V38.9911H84.7854V31.8729H78.0544V38.9911H72.8938V21.3904Z" fill="#D83135"/>
	<path d="M0.446106 5.79259V0.458405H20.1341V5.79259H0.446106Z" fill="#EC268F"/>
	<path d="M0.446106 25.3575V30.6919H20.1341V25.3575H0.446106Z" fill="#0098DA"/>
	<path d="M0.446106 14.0925V8.75815H20.1341V14.0925H0.446106Z" fill="#A8CF45"/>
	<path d="M0.446106 38.9913V33.6569H20.1341V38.9913H0.446106Z" fill="#F58634"/>
	<path d="M0.446106 17.0576V22.392H20.1341V17.0576H0.446106Z" fill="#FFD525"/>
</svg>
